<svg width="38" height="46" viewBox="0 0 38 46" fill="none" xmlns="http://www.w3.org/2000/svg">
<path d="M25.5099 7.37555C27.0659 5.40525 28.1391 2.72006 27.8374 0C25.5832 0.104618 22.7644 1.57798 21.1395 3.50469C19.7042 5.20473 18.4155 7.99017 18.7517 10.6056C21.286 10.7974 23.885 9.31533 25.5099 7.37555Z" fill="white"/>
<path d="M31.2165 24.4632C31.1605 18.6526 35.9189 15.8236 36.1387 15.6928C33.4449 11.7173 29.2684 11.1768 27.7986 11.1332C24.2945 10.7627 20.8938 13.2604 19.1094 13.2604C17.2863 13.2604 14.5321 11.1724 11.5711 11.2335C7.7523 11.2945 4.18353 13.5307 2.22674 16.9961C-1.80752 24.0709 1.20093 34.4629 5.07141 40.182C7.01096 42.9806 9.26946 46.1104 12.2305 45.997C15.1269 45.875 16.2087 44.1313 19.7042 44.1313C23.1696 44.1313 24.1868 45.997 27.2081 45.9273C30.3157 45.875 32.2725 43.1157 34.1388 40.2866C36.3801 37.0784 37.2766 33.918 37.311 33.7568C37.2378 33.7306 31.2769 31.429 31.2165 24.4632Z" fill="white"/>
</svg>
