<svg width="73" height="74" viewBox="0 0 73 74" fill="none" xmlns="http://www.w3.org/2000/svg">
<path d="M39.5417 64.3723C41.2215 64.3723 42.5833 63.0105 42.5833 61.3306C42.5833 59.6508 41.2215 58.289 39.5417 58.289C37.8618 58.289 36.5 59.6508 36.5 61.3306C36.5 63.0105 37.8618 64.3723 39.5417 64.3723Z" fill="#060F21"/>
<path d="M63.875 33.9556C63.875 32.2758 62.5132 30.914 60.8333 30.914C59.1535 30.914 57.7917 32.2758 57.7917 33.9556C57.7917 35.6355 59.1535 36.9973 60.8333 36.9973C62.5132 36.9973 63.875 35.6355 63.875 33.9556Z" fill="#060F21"/>
<path d="M60.6188 43.8957C62.0736 44.7356 62.572 46.5959 61.7321 48.0507C60.8922 49.5055 59.0319 50.0039 57.5771 49.164C56.1223 48.3241 55.6239 46.4638 56.4638 45.009C57.3037 43.5542 59.164 43.0557 60.6188 43.8957Z" fill="#060F21"/>
<path d="M52.8265 59.1839C54.2813 58.3439 54.7797 56.4837 53.9398 55.0289C53.0999 53.5741 51.2396 53.0756 49.7848 53.9155C48.33 54.7555 47.8315 56.6157 48.6715 58.0705C49.5114 59.5253 51.3717 60.0238 52.8265 59.1839Z" fill="#060F21"/>
<path d="M57.5694 24.8306C56.1146 25.6706 54.2544 25.1721 53.4145 23.7173C52.5745 22.2625 53.073 20.4022 54.5278 19.5623C55.9826 18.7224 57.8428 19.2208 58.6828 20.6756C59.5227 22.1304 59.0243 23.9907 57.5694 24.8306Z" fill="#060F21"/>
<path d="M30.4167 45.3646V43.0833H25.8542V45.3646H30.4167ZM28.1354 62.0937V64.375H30.4167V62.0937H28.1354ZM11.4062 59.8125H9.125V64.375H11.4062V59.8125ZM25.8542 45.3646V62.0937H30.4167V45.3646H25.8542ZM28.1354 59.8125H11.4062V64.375H28.1354V59.8125ZM13.6875 37C13.6875 24.401 23.901 14.1875 36.5 14.1875V9.625C21.3812 9.625 9.125 21.8812 9.125 37H13.6875ZM28.2049 58.2581C19.7036 54.9381 13.6875 46.6688 13.6875 37H9.125C9.125 48.6105 16.3522 58.5274 26.5451 62.508L28.2049 58.2581ZM36.5 14.1875C40.8008 14.1875 44.8171 15.3755 48.2466 17.4398L50.5996 13.5309C46.4797 11.0509 41.6529 9.625 36.5 9.625V14.1875Z" fill="#060F21"/>
</svg>
