<svg xmlns="http://www.w3.org/2000/svg" width="57" height="34" viewBox="0 0 57 34" fill="none">
  <path d="M55.2721 0.24063C54.8305 0.200148 54.3483 0.159668 53.9066 0.159668C46.392 0.159668 40.083 5.01745 37.8746 11.7212C36.112 8.46648 32.6657 6.16308 28.723 5.95663C28.7048 5.95663 28.6886 5.95663 28.6704 5.9546C28.4981 5.94651 28.3239 5.94043 28.1497 5.94043C28.1456 5.94043 28.1416 5.94043 28.1375 5.94043C28.1335 5.94043 28.1294 5.94043 28.1254 5.94043C27.9511 5.94043 27.7769 5.94651 27.6047 5.9546C27.5864 5.9546 27.5702 5.9546 27.552 5.95663C23.6114 6.16106 20.1651 8.46648 18.4024 11.7212C16.192 5.01745 9.88298 0.159668 2.37046 0.159668C1.92878 0.159668 1.44659 0.200148 1.00491 0.24063C0.403181 0.362074 0 0.843807 0 1.44496V32.5955C0 33.1582 0.401155 33.6804 1.00491 33.7998L1.20549 33.8403H2.37046C3.85756 33.8403 5.22311 33.6804 6.62917 33.3586C7.11137 33.1582 7.6746 33.0368 8.19529 32.8364C8.71801 32.6765 9.20021 32.4356 9.72292 32.2352C10.2051 31.9539 10.6873 31.713 11.129 31.4317C11.3701 31.2718 11.5707 31.1503 11.8118 30.9904C12.2534 30.7091 12.6951 30.3488 13.0983 30.027C13.54 29.6667 13.9411 29.3044 14.3443 28.9441C16.1515 27.0981 17.5981 24.8089 18.4024 22.2808C20.1671 25.576 23.6154 27.845 27.5601 28.0454C27.5743 28.0454 27.5885 28.0454 27.6026 28.0474C27.7769 28.0555 27.9531 28.0616 28.1294 28.0616C28.1335 28.0616 28.1375 28.0616 28.1416 28.0616C28.1456 28.0616 28.1497 28.0616 28.1537 28.0616C28.33 28.0616 28.5042 28.0555 28.6805 28.0474C28.6947 28.0474 28.7089 28.0474 28.723 28.0454C32.6677 27.845 36.116 25.576 37.8807 22.2808C38.685 24.8109 40.1316 27.0981 41.9388 28.9441C42.34 29.3044 42.7432 29.6667 43.1848 30.027C43.586 30.3488 44.0277 30.7091 44.4714 30.9904C44.7125 31.1503 44.913 31.2718 45.1541 31.4317C45.5958 31.713 46.078 31.9539 46.5602 32.2352C47.0829 32.4356 47.5651 32.6765 48.0878 32.8364C48.6105 33.0368 49.1738 33.1582 49.656 33.3586C51.062 33.6804 52.4276 33.8403 53.9147 33.8403H55.0797L55.2802 33.7998C55.882 33.6804 56.2852 33.1582 56.2852 32.5955V1.44496C56.2852 0.843807 55.884 0.362074 55.2802 0.24063H55.2721Z" fill="#FFE201"/>
</svg>
