<svg xmlns="http://www.w3.org/2000/svg" width="49" height="46" viewBox="0 0 49 46" fill="none">
  <path d="M48.3244 0.896032C39.2107 4.10244 32.6673 12.7905 32.6673 23.0006C32.6673 33.2106 39.2107 41.8987 48.3244 45.1051C48.6555 45.216 49 44.9694 49 44.6252V1.37403C49 1.02987 48.6555 0.785137 48.3244 0.894121V0.896032ZM31.9917 0.896032C22.878 4.10244 16.3346 12.7905 16.3346 23.0006C16.3346 33.2106 22.878 41.8987 31.9917 45.1051C32.3228 45.216 32.6673 44.9694 32.6673 44.6252V1.37403C32.6673 1.02987 32.3228 0.785137 31.9917 0.894121V0.896032ZM15.6571 0.896032C6.54341 4.10244 0 12.7905 0 23.0006C0 33.2106 6.54341 41.8987 15.6571 45.1051C15.9882 45.216 16.3327 44.9694 16.3327 44.6252V1.37403C16.3327 1.02987 15.9882 0.785137 15.6571 0.894121V0.896032Z" fill="#6624CE"/>
</svg>
