<svg xmlns="http://www.w3.org/2000/svg" width="44" height="46" viewBox="0 0 44 46" fill="none">
  <path d="M22.098 12.8351C22.0481 13.5217 21.9431 14.1497 21.7792 14.7545C21.0278 17.5315 19.427 19.7267 17.0213 21.2761C15.5042 22.2617 13.7876 22.8345 11.9162 22.9839C11.1612 23.0391 10.4169 23.0195 9.62624 22.9217C8.8196 22.8132 8.03255 22.6228 7.28289 22.3524C3.93525 21.1374 1.36576 18.3694 0.405985 14.9502C0.20477 14.2351 0.0765692 13.4755 0.0231494 12.6856C8.70311e-07 12.296 0 11.91 0 11.5382V2.62927C0 1.70244 0.754996 0.949951 1.68806 0.949951H11.0668L11.8823 0.953508V0.981972C11.9642 0.987309 12.0462 0.994425 12.1263 1.00154C12.7477 1.0638 13.3015 1.15809 13.825 1.29507C16.2325 1.93015 18.2304 3.23411 19.7635 5.1696C21.0812 6.83469 21.8594 8.7684 22.0766 10.9138C22.1407 11.5436 22.1478 12.1893 22.0962 12.8333L22.098 12.8351Z" fill="#FCBC45"/>
  <path d="M22.098 33.1648C22.0481 32.4781 21.9431 31.8502 21.7792 31.2453C21.0278 28.4684 19.427 26.2732 17.0213 24.7237C15.5042 23.7382 13.7876 23.1654 11.9162 23.0159C11.1612 22.9608 10.4169 22.9804 9.62624 23.0782C8.8196 23.1867 8.03255 23.3771 7.28289 23.6475C3.93525 24.8625 1.36576 27.6305 0.405985 31.0497C0.20477 31.7648 0.0765692 32.5244 0.0231494 33.3142C8.70311e-07 33.7038 0 34.0899 0 34.4617V43.3706C0 44.2974 0.754996 45.0499 1.68806 45.0499H11.0668L11.8823 45.0464V45.0179C11.9642 45.0126 12.0462 45.0055 12.1263 44.9983C12.7477 44.9361 13.3015 44.8418 13.825 44.7048C16.2325 44.0697 18.2304 42.7658 19.7635 40.8303C21.0812 39.1652 21.8594 37.2315 22.0766 35.0861C22.1407 34.4563 22.1478 33.8106 22.0962 33.1666L22.098 33.1648Z" fill="#FCBC45"/>
  <path d="M21.9035 12.8351C21.9534 13.5217 22.0584 14.1497 22.2222 14.7545C22.9737 17.5315 24.5745 19.7267 26.9802 21.2761C28.4973 22.2617 30.2138 22.8345 32.0853 22.9839C32.8403 23.0391 33.5846 23.0195 34.3752 22.9217C35.1819 22.8132 35.9689 22.6228 36.7186 22.3524C40.0662 21.1374 42.6357 18.3694 43.5955 14.9502C43.7967 14.2351 43.9249 13.4755 43.9783 12.6856C44.0015 12.296 44.0015 11.91 44.0015 11.5382V2.62927C44.0015 1.70244 43.2465 0.949951 42.3134 0.949951H32.9347L32.1191 0.953508V0.981972C32.0372 0.987309 31.9553 0.994425 31.8752 1.00154C31.2537 1.0638 30.6999 1.15809 30.1764 1.29507C27.769 1.93015 25.7711 3.23411 24.2379 5.1696C22.9203 6.83469 22.1421 8.7684 21.9249 10.9138C21.8608 11.5436 21.8536 12.1893 21.9053 12.8333L21.9035 12.8351Z" fill="#FCBC45"/>
  <path d="M21.9035 33.1648C21.9534 32.4781 22.0584 31.8502 22.2222 31.2453C22.9737 28.4684 24.5745 26.2732 26.9802 24.7237C28.4973 23.7382 30.2138 23.1654 32.0853 23.0159C32.8403 22.9608 33.5846 22.9804 34.3752 23.0782C35.1819 23.1867 35.9689 23.3771 36.7186 23.6475C40.0662 24.8625 42.6357 27.6305 43.5955 31.0497C43.7967 31.7648 43.9249 32.5244 43.9783 33.3142C44.0015 33.7038 44.0015 34.0899 44.0015 34.4617V43.3706C44.0015 44.2974 43.2465 45.0499 42.3134 45.0499H32.9347L32.1191 45.0464V45.0179C32.0372 45.0126 31.9553 45.0055 31.8752 44.9983C31.2537 44.9361 30.6999 44.8418 30.1764 44.7048C27.769 44.0697 25.7711 42.7658 24.2379 40.8303C22.9203 39.1652 22.1421 37.2315 21.9249 35.0861C21.8608 34.4563 21.8536 33.8106 21.9053 33.1666L21.9035 33.1648Z" fill="#FCBC45"/>
</svg>
