<svg xmlns="http://www.w3.org/2000/svg" width="24" height="24" viewBox="0 0 24 24" fill="none">
  <path d="M19.8282 6.92443C17.0165 2.5897 11.2759 1.301 6.82402 3.99556C2.4893 6.69012 1.08344 12.5479 3.89515 16.8826L4.12946 17.234L3.19223 20.7487L6.70687 19.8114L7.05833 20.0458C8.58134 20.8658 10.2215 21.3345 11.8617 21.3345C13.619 21.3345 15.3763 20.8658 16.8993 19.9286C21.2341 17.1169 22.5228 11.3763 19.8282 6.92443ZM17.3679 15.9453C16.8993 16.6483 16.3136 17.1169 15.4935 17.234C15.0249 17.234 14.4391 17.4684 12.096 16.5311C10.1044 15.5939 8.46419 14.0709 7.29264 12.3135C6.58971 11.4935 6.23825 10.4391 6.12109 9.38468C6.12109 8.44744 6.47256 7.62735 7.05833 7.04158C7.29264 6.80727 7.52695 6.69012 7.76126 6.69012H8.34703C8.58134 6.69012 8.81565 6.69012 8.93281 7.15874C9.16712 7.74451 9.75289 9.15037 9.75289 9.26752C9.87005 9.38468 9.87005 9.61899 9.75289 9.73614C9.87005 9.97045 9.75289 10.2048 9.63574 10.3219C9.51858 10.4391 9.40143 10.6734 9.28427 10.7905C9.04996 10.9077 8.93281 11.142 9.04996 11.3763C9.51858 12.0792 10.1044 12.7822 10.6901 13.3679C11.3931 13.9537 12.096 14.4223 12.9161 14.7738C13.1504 14.8909 13.3847 14.8909 13.5018 14.6566C13.619 14.4223 14.2048 13.8366 14.4391 13.6022C14.6734 13.3679 14.7905 13.3679 15.0249 13.4851L16.8993 14.4223C17.1336 14.5395 17.368 14.6566 17.4851 14.7738C17.6023 15.1253 17.6023 15.5939 17.3679 15.9453Z" fill="white"/>
</svg> 
