<svg xmlns="http://www.w3.org/2000/svg" width="24" height="24" viewBox="0 0 24 24" fill="none">
  <path d="M21.6819 5.76846C20.9369 6.09805 20.1468 6.31457 19.3379 6.41086C20.1902 5.90039 20.828 5.09749 21.1323 4.15172C20.3317 4.62815 19.454 4.96204 18.5402 5.14266C17.9258 4.4852 17.1113 4.04918 16.2235 3.90236C15.3356 3.75555 14.4241 3.90618 13.6307 4.33082C12.8373 4.75547 12.2064 5.43035 11.8362 6.25054C11.4659 7.07073 11.377 7.99028 11.5832 8.86622C9.95956 8.78499 8.37117 8.36317 6.92116 7.62815C5.47115 6.89314 4.19194 5.86137 3.1666 4.59984C2.80371 5.22315 2.613 5.93172 2.61402 6.65297C2.61402 8.06859 3.3355 9.31922 4.42992 10.0514C3.78168 10.031 3.14771 9.85593 2.58083 9.54084V9.59063C2.5808 10.5336 2.90694 11.4476 3.50394 12.1775C4.10094 12.9074 4.93204 13.4084 5.85628 13.5954C5.25454 13.7586 4.62351 13.7827 4.01109 13.6657C4.27169 14.4773 4.77964 15.1872 5.46381 15.6958C6.14798 16.2043 6.97409 16.4862 7.82643 16.5018C6.97936 17.1671 6.00945 17.6589 4.97216 17.949C3.93488 18.2391 2.85057 18.322 1.78125 18.1927C3.64764 19.3929 5.82026 20.0302 8.03926 20.0281C15.5508 20.0281 19.6571 13.8062 19.6571 8.4103C19.6571 8.23456 19.6532 8.05688 19.6454 7.88212C20.4444 7.30451 21.134 6.58811 21.6819 5.76846Z" fill="white"/>
</svg>
