<svg xmlns="http://www.w3.org/2000/svg" width="25" height="24" viewBox="0 0 25 24" fill="none">
  <path d="M8.58821 11.9618H16.3985M9.5645 8.05664H6.63563C5.59991 8.05664 4.60662 8.46808 3.87426 9.20043C3.1419 9.93279 2.73047 10.9261 2.73047 11.9618C2.73047 12.9975 3.1419 13.9908 3.87426 14.7232C4.60662 15.4555 5.59991 15.867 6.63563 15.867H9.5645M15.4222 8.05664H18.3511C19.3868 8.05664 20.3801 8.46808 21.1125 9.20043C21.8448 9.93279 22.2563 10.9261 22.2563 11.9618C22.2563 12.9975 21.8448 13.9908 21.1125 14.7232C20.3801 15.4555 19.3868 15.867 18.3511 15.867H15.4222" stroke="white" stroke-width="1.62715" stroke-linecap="round" stroke-linejoin="round"/>
</svg>
