<svg width="111" height="111" viewBox="0 0 111 111" fill="none" xmlns="http://www.w3.org/2000/svg" >
  <path d="M110.396 55.6045C110.338 46.8663 103.492 39.7577 94.8697 39.2943C97.6575 36.1898 99.0669 32.2744 99.0669 28.3475C99.0245 24.185 97.4684 19.9376 94.2751 16.7442C88.0545 10.6048 78.1888 10.4194 71.7636 16.1921C71.5396 12.0257 69.7673 8.26094 66.991 5.4808C64.0178 2.56551 59.9132 0.665741 55.3955 0.665741C46.6574 0.723661 39.5487 7.56977 39.0853 16.1921C35.9808 13.4042 32.0655 11.9948 28.1385 11.9948C23.976 12.0373 19.7286 13.5934 16.5314 16.7867C10.3919 23.0073 10.2066 32.8729 15.9792 39.2982C7.35694 39.7615 0.510801 46.8663 0.452881 55.6084C0.452881 60.1261 2.35654 64.2307 5.26797 67.2039C8.04426 69.9802 11.8129 71.7525 15.9792 71.9764C10.2104 78.4017 10.3919 88.2673 16.5314 94.4879C19.7286 97.6851 23.9722 99.2412 28.1346 99.2798C32.0616 99.2798 35.977 97.8665 39.0815 95.0825C39.5448 103.705 46.6496 110.551 55.3916 110.609C59.9094 110.609 64.014 108.705 66.9872 105.794C69.7635 103.018 71.5358 99.2489 71.7597 95.0825C78.185 100.855 88.0506 100.67 94.2712 94.5304C97.4684 91.3332 99.0244 87.0896 99.0631 82.9271C99.0631 79.0002 97.6498 75.0848 94.8658 71.9803C99.0322 71.7564 102.801 69.984 105.577 67.2077C108.492 64.2345 110.392 60.1299 110.392 55.6122L110.396 55.6045Z" fill="#FFE201" />
</svg>
