<svg xmlns="http://www.w3.org/2000/svg" width="438" height="396" viewBox="0 0 438 396" fill="none">
  <path d="M6.02535 394.943C87.3149 366.316 145.679 288.748 145.679 197.592C145.679 106.435 87.3149 28.8671 6.02535 0.239936C3.07216 -0.750151 -0.00057172 1.45196 -0.00057172 4.52464L-0.00057172 390.676C-0.00057172 393.748 3.07216 395.933 6.02535 394.96V394.943ZM151.705 394.943C232.994 366.316 291.358 288.748 291.358 197.592C291.358 106.435 232.994 28.8671 151.705 0.239936C148.751 -0.750151 145.679 1.45196 145.679 4.52464L145.679 390.676C145.679 393.748 148.751 395.933 151.705 394.96V394.943ZM297.401 394.943C378.691 366.316 437.055 288.748 437.055 197.592C437.055 106.435 378.691 28.8671 297.401 0.239936C294.448 -0.750151 291.375 1.45196 291.375 4.52464L291.375 390.676C291.375 393.748 294.448 395.933 297.401 394.96V394.943Z" fill="#FFB8FF"/>
</svg>
