<svg xmlns="http://www.w3.org/2000/svg" width="417" height="417" viewBox="0 0 417 417" fill="none">
  <path d="M408.787 84.046C405.513 83.7411 401.951 83.4522 398.677 83.4522C343.101 83.4522 296.448 119.417 280.111 169.039C280.078 168.975 280.03 168.91 279.998 168.846C279.324 167.595 278.586 166.375 277.848 165.171C277.719 164.963 277.607 164.738 277.463 164.529C270 152.605 259.585 142.735 247.179 136.107C265.908 130.169 282.839 119.465 296.512 106.097C299.192 103.128 301.856 100.159 304.536 96.8848C306.912 93.9158 309.592 90.642 311.662 87.3841C312.849 85.6027 313.748 84.1102 314.936 82.3288C317.022 79.0549 318.803 75.4922 320.874 71.9294C322.366 68.0617 324.148 64.4989 325.335 60.6313C326.828 56.7636 327.71 52.607 329.203 49.0442C331.578 38.6448 332.766 28.5342 332.766 17.541V8.92298L332.461 7.43046C331.578 2.96898 327.71 0 323.554 0H92.953C88.4915 0 84.9286 2.96898 84.0299 7.43046C83.725 10.7044 83.4361 14.2671 83.4361 17.541C83.4361 73.117 119.401 119.77 169.023 136.107C162.78 139.494 157.019 143.714 151.867 148.625C151.321 149.139 150.792 149.684 150.262 150.214C149.716 150.776 149.139 151.305 148.609 151.883C143.714 157.035 139.477 162.796 136.107 169.039C119.77 119.417 73.1008 83.4522 17.5409 83.4522C14.267 83.4522 10.7044 83.7571 7.43046 84.046C2.96898 84.9447 0 88.5075 0 92.969V323.57C0 327.727 2.96898 331.594 7.43046 332.477L8.92286 332.782H17.5409C28.5341 332.782 38.6447 331.594 49.0441 329.219C52.6069 327.726 56.7636 326.844 60.6313 325.351C64.499 324.164 68.0616 322.382 71.9293 320.89C75.4921 318.804 79.0548 317.022 82.3287 314.952C84.1101 313.764 85.6026 312.866 87.384 311.678C90.6579 309.592 93.9158 306.928 96.9009 304.552C100.175 301.872 103.144 299.208 106.113 296.528C119.481 282.855 130.185 265.924 136.123 247.195C142.767 259.601 152.621 270.032 164.545 277.495C164.738 277.607 164.93 277.719 165.123 277.832C166.359 278.586 167.594 279.324 168.862 280.014C168.926 280.046 168.991 280.079 169.039 280.127C119.417 296.464 83.4522 343.133 83.4522 398.693C83.4522 401.967 83.7571 405.53 84.046 408.804C84.9447 413.265 88.5074 416.234 92.9689 416.234H323.57C327.726 416.234 331.594 413.265 332.477 408.804L332.782 407.311V398.693C332.782 387.7 331.594 377.589 329.219 367.19C327.726 363.627 326.844 359.47 325.351 355.603C324.164 351.735 322.382 348.172 320.89 344.305C318.803 340.742 317.022 337.179 314.952 333.905C313.764 332.124 312.865 330.631 311.678 328.85C309.592 325.576 306.928 322.318 304.552 319.349C301.872 316.075 299.208 313.106 296.528 310.137C282.855 296.769 265.924 286.065 247.195 280.127C247.259 280.095 247.323 280.046 247.388 280.014C248.158 279.597 248.912 279.148 249.666 278.698C250.485 278.217 251.319 277.751 252.122 277.238C252.491 277.013 252.828 276.756 253.197 276.516C254.305 275.794 255.412 275.055 256.471 274.269C256.712 274.092 256.937 273.9 257.177 273.723C258.301 272.889 259.424 272.022 260.515 271.123C260.868 270.818 261.221 270.514 261.575 270.209C262.489 269.422 263.404 268.636 264.287 267.801C264.896 267.224 265.49 266.614 266.084 266.02C266.662 265.442 267.256 264.865 267.817 264.271C268.668 263.372 269.47 262.441 270.257 261.51C270.546 261.173 270.85 260.852 271.139 260.499C272.054 259.408 272.921 258.269 273.771 257.113C273.932 256.888 274.108 256.68 274.269 256.455C275.055 255.364 275.809 254.256 276.532 253.133C276.756 252.78 276.997 252.459 277.222 252.106C277.735 251.287 278.233 250.437 278.714 249.586C279.148 248.848 279.581 248.126 279.998 247.372C280.03 247.307 280.078 247.227 280.126 247.163C286.064 265.892 296.769 282.823 310.137 296.496C313.106 299.176 316.075 301.84 319.349 304.52C322.318 306.896 325.592 309.576 328.866 311.646C330.647 312.833 332.14 313.732 333.921 314.92C337.195 317.006 340.758 318.787 344.32 320.858C348.188 322.35 351.751 324.132 355.619 325.319C359.486 326.796 363.643 327.694 367.206 329.187C377.605 331.562 387.716 332.75 398.709 332.75H407.327L408.82 332.445C413.281 331.562 416.25 327.694 416.25 323.538V92.9369C416.25 88.4754 413.281 84.9126 408.82 84.0139L408.787 84.046Z" fill="#A4FC5A"/>
</svg>
