<svg width="990" height="246" viewBox="0 0 990 246" fill="none" xmlns="http://www.w3.org/2000/svg">
<rect x="0.136719" y="0.505859" width="245.113" height="245.113" rx="122.557" fill="#E5489B"/>
<path d="M71.8223 162.54V112.073C71.8223 105.879 76.8433 100.858 83.037 100.858H161.54C167.734 100.858 172.755 105.879 172.755 112.073V162.54C172.755 168.733 167.734 173.754 161.54 173.754H83.037C76.8433 173.754 71.8223 168.733 71.8223 162.54Z" stroke="white" stroke-width="11.2148"/>
<path d="M99.8613 95.2518V95.2518C99.8613 82.8643 109.903 72.8223 122.291 72.8223V72.8223C134.678 72.8223 144.72 82.8643 144.72 95.2518V95.2518" stroke="white" stroke-width="11.2148"/>
<path d="M150.326 173.826L94.2519 173.761C91.155 173.758 88.6474 171.244 88.651 168.148L88.6831 140.111C88.6902 133.917 93.717 128.902 99.9108 128.909L144.77 128.96C150.964 128.967 155.979 133.994 155.972 140.188L155.939 168.225C155.936 171.322 153.423 173.829 150.326 173.826Z" stroke="white" stroke-width="11.2148"/>
<path d="M94.2756 151.332V151.332C103.566 151.343 111.106 143.82 111.117 134.529V134.529" stroke="white" stroke-width="11.2148"/>
<path d="M150.352 151.396V151.396C141.061 151.386 133.538 143.846 133.549 134.555V134.555" stroke="white" stroke-width="11.2148"/>
<path d="M139.111 173.815C139.122 164.524 131.599 156.984 122.308 156.974C113.018 156.963 105.477 164.486 105.467 173.776L139.111 173.815Z" stroke="white" stroke-width="11.2148"/>
<rect x="234.369" y="37.168" width="171.788" height="171.788" rx="85.8942" fill="#F7C8E1"/>
<path d="M296.666 117.166C296.666 113.945 299.278 111.333 302.499 111.333H337.499C340.721 111.333 343.333 113.945 343.333 117.166V143.416C343.333 146.638 340.721 149.25 337.499 149.25H302.499C299.278 149.25 296.666 146.638 296.666 143.416V117.166Z" stroke="#060F21" stroke-width="5.83333"/>
<path d="M346.25 114.25L333.125 99.7679L306.875 99.667L293.75 114.25" stroke="#060F21" stroke-width="5.83333" stroke-linecap="round" stroke-linejoin="round"/>
<circle cx="320" cy="131.75" r="5.83333" stroke="#060F21" stroke-width="5.83333"/>
<path d="M308.334 152.166V149.25C308.334 142.806 313.557 137.583 320.001 137.583V137.583C326.444 137.583 331.667 142.806 331.667 149.25V152.166" stroke="#060F21" stroke-width="5.83333"/>
<path d="M343.333 114.25C343.333 117.472 340.721 120.083 337.499 120.083C334.278 120.083 331.666 117.472 331.666 114.25" stroke="#060F21" stroke-width="5.83333"/>
<path d="M331.667 114.25C331.667 117.472 329.055 120.083 325.833 120.083C322.612 120.083 320 117.472 320 114.25" stroke="#060F21" stroke-width="5.83333"/>
<path d="M320.001 114.25C320.001 117.472 317.389 120.083 314.167 120.083C310.946 120.083 308.334 117.472 308.334 114.25" stroke="#060F21" stroke-width="5.83333"/>
<path d="M308.333 114.25C308.333 117.472 305.721 120.083 302.499 120.083C299.278 120.083 296.666 117.472 296.666 114.25" stroke="#060F21" stroke-width="5.83333"/>
<rect x="395.277" y="54.3828" width="137.36" height="137.36" rx="68.6798" fill="#FBA500"/>
<path d="M444.5 133.833V112.167C444.5 107.38 448.38 103.5 453.167 103.5H474.833C479.62 103.5 483.5 107.38 483.5 112.167V133.833C483.5 138.62 479.62 142.5 474.833 142.5H453.167C448.38 142.5 444.5 138.62 444.5 133.833Z" stroke="white" stroke-width="4.33333"/>
<line x1="444.5" y1="114.333" x2="483.5" y2="114.333" stroke="white" stroke-width="4.33333"/>
<path d="M466.166 120.833H468.333" stroke="white" stroke-width="4.33333" stroke-linecap="round" stroke-linejoin="round"/>
<path d="M466.166 127.333H468.333" stroke="white" stroke-width="4.33333" stroke-linecap="round" stroke-linejoin="round"/>
<path d="M474.834 120.833H477.001" stroke="white" stroke-width="4.33333" stroke-linecap="round" stroke-linejoin="round"/>
<path d="M474.834 127.333H477.001" stroke="white" stroke-width="4.33333" stroke-linecap="round" stroke-linejoin="round"/>
<path d="M474.834 133.833H477.001" stroke="white" stroke-width="4.33333" stroke-linecap="round" stroke-linejoin="round"/>
<circle cx="455.334" cy="125.167" r="4.33333" stroke="white" stroke-width="4.33333"/>
<path d="M446.666 140.334V140.334C446.666 135.547 450.546 131.667 455.333 131.667V131.667C460.119 131.667 463.999 135.547 463.999 140.334V140.334" stroke="white" stroke-width="4.33333"/>
<rect x="521.756" y="60.7764" width="124.572" height="124.572" rx="62.2858" fill="#FFE201"/>
<rect x="568.25" y="112.198" width="7.00029" height="12.9834" rx="1.74992" transform="rotate(-45 568.25 112.198)" stroke="#1A534A" stroke-width="3.49985"/>
<path d="M571.75 110.75L568.25 107.25M596.25 135.25L599.75 138.75M582.25 121.25L578.75 117.75M585.75 124.75L589.25 128.25" stroke="#1A534A" stroke-width="3.49985" stroke-linecap="round" stroke-linejoin="round"/>
<rect x="585.75" y="129.697" width="7.00029" height="12.6005" rx="1.74992" transform="rotate(-45 585.75 129.697)" stroke="#1A534A" stroke-width="3.49985"/>
<path d="M592.748 121.249H595.373" stroke="#1A534A" stroke-width="3.49985" stroke-linecap="round" stroke-linejoin="round"/>
<path d="M571.75 124.749H574.375" stroke="#1A534A" stroke-width="3.49985" stroke-linecap="round" stroke-linejoin="round"/>
<path d="M585.75 115.119L585.921 112.499" stroke="#1A534A" stroke-width="3.49985" stroke-linecap="round" stroke-linejoin="round"/>
<path d="M582.25 134.369L582.421 131.749" stroke="#1A534A" stroke-width="3.49985" stroke-linecap="round" stroke-linejoin="round"/>
<path d="M577 130.18L578.778 128.248" stroke="#1A534A" stroke-width="3.49985" stroke-linecap="round" stroke-linejoin="round"/>
<path d="M589.279 117.804L591.002 116.053" stroke="#1A534A" stroke-width="3.49985" stroke-linecap="round" stroke-linejoin="round"/>
<rect x="635.447" y="60.7764" width="124.572" height="124.572" rx="62.2858" fill="#6624CE"/>
<path d="M708.034 116.907C706.783 114.741 704.855 113.042 702.524 112.051C700.193 111.061 697.58 110.831 695.059 111.394C692.538 111.958 690.239 113.285 688.491 115.187C686.742 117.088 685.635 119.466 685.327 121.98" stroke="#A4FC5A" stroke-width="2.96012" stroke-linecap="round"/>
<path d="M687.525 128.747C688.775 130.912 690.704 132.612 693.035 133.602C695.365 134.592 697.979 134.822 700.499 134.259C703.02 133.696 705.32 132.368 707.068 130.467C708.816 128.565 709.924 126.187 710.231 123.673" stroke="#A4FC5A" stroke-width="2.96012" stroke-linecap="round"/>
<path d="M708.121 110.92V116.84H702.201" stroke="#A4FC5A" stroke-width="2.96012" stroke-linecap="round" stroke-linejoin="round"/>
<path d="M687.402 134.602V128.681H693.322" stroke="#A4FC5A" stroke-width="2.96012" stroke-linecap="round" stroke-linejoin="round"/>
<path d="M694.801 122.586C694.801 121.103 696.07 119.8 697.761 119.8C699.452 119.8 700.721 121.103 700.721 122.586C700.721 123.326 700.415 124.006 699.897 124.515C699.896 124.515 699.896 124.515 699.896 124.515L697.761 126.608L695.626 124.515C695.626 124.515 695.626 124.515 695.625 124.515C695.107 124.006 694.801 123.326 694.801 122.586Z" stroke="#A4FC5A" stroke-width="2.96012"/>
<path d="M694.801 122.586C694.801 121.103 696.07 119.8 697.761 119.8C699.452 119.8 700.721 121.103 700.721 122.586C700.721 123.326 700.415 124.006 699.897 124.515C699.896 124.515 699.896 124.515 699.896 124.515L697.761 126.608L695.626 124.515C695.626 124.515 695.626 124.515 695.625 124.515C695.107 124.006 694.801 123.326 694.801 122.586Z" stroke="#A4FC5A" stroke-width="2.96012"/>
<rect x="749.137" y="66.2725" width="113.58" height="113.58" rx="56.7899" fill="#A4FC5A"/>
<path d="M791.848 135.518V120.115C791.848 119.17 792.614 118.403 793.559 118.403H817.52C818.466 118.403 819.232 119.17 819.232 120.115V135.518C819.232 137.409 817.699 138.941 815.809 138.941H795.271C793.38 138.941 791.848 137.409 791.848 135.518Z" stroke="#6624CE" stroke-width="3.42301"/>
<circle cx="805.539" cy="128.673" r="3.42301" stroke="#6624CE" stroke-width="3.42301"/>
<path d="M798.693 140.653V138.942C798.693 135.161 801.758 132.096 805.539 132.096V132.096C809.32 132.096 812.385 135.161 812.385 138.942V140.653" stroke="#6624CE" stroke-width="3.42301"/>
<path d="M790.135 118.403L805.538 109.846L820.942 118.403" stroke="#6624CE" stroke-width="3.42301" stroke-linecap="round"/>
<rect x="851.836" y="80.2217" width="85.6807" height="85.6807" rx="42.8404" fill="#F7C8E1"/>
<path d="M884.5 131.167V114.833C884.5 113.545 885.545 112.5 886.833 112.5H903.167C904.455 112.5 905.5 113.545 905.5 114.833V131.167C905.5 132.455 904.455 133.5 903.167 133.5H886.833C885.545 133.5 884.5 132.455 884.5 131.167Z" stroke="black" stroke-width="2.33333"/>
<circle cx="890.334" cy="124.167" r="2.33333" stroke="black" stroke-width="2.33333"/>
<circle cx="899.666" cy="124.167" r="2.33333" stroke="black" stroke-width="2.33333"/>
<circle cx="895" cy="118.333" r="2.33333" stroke="black" stroke-width="2.33333"/>
<path d="M885.666 133.5V132.334C885.666 129.756 887.755 127.667 890.333 127.667V127.667C892.91 127.667 894.999 129.756 894.999 132.334V133.5" stroke="black" stroke-width="2.33333"/>
<path d="M895 133.5V132.334C895 129.756 897.089 127.667 899.667 127.667V127.667C902.244 127.667 904.333 129.756 904.333 132.334V133.5" stroke="black" stroke-width="2.33333"/>
<rect x="926.637" y="91.8125" width="62.5004" height="62.5004" rx="31.2502" fill="#1A534A"/>
<path d="M947.5 125.333V117.166C947.5 115.878 948.545 114.833 949.833 114.833H966.167C967.455 114.833 968.5 115.878 968.5 117.166V125.333C968.5 126.622 967.455 127.666 966.167 127.666H949.833C948.545 127.666 947.5 126.622 947.5 125.333Z" stroke="white" stroke-width="2.33333"/>
<path d="M951 127.667V126.5H949.833V127.667H951ZM951 131.167H949.833C949.833 131.811 950.356 132.334 951 132.334V131.167ZM955.667 131.167V132.334C956.311 132.334 956.833 131.811 956.833 131.167L955.667 131.167ZM955.667 127.667H956.833V126.5H955.667V127.667ZM949.833 127.667V131.167H952.167V127.667H949.833ZM951 132.334H955.667V130H951V132.334ZM956.833 131.167V127.667H954.5V131.167H956.833ZM951 128.834H955.667V126.5H951V128.834Z" fill="white"/>
<path d="M960.334 131.167V127.667H965.001V131.167H960.334Z" stroke="white" stroke-width="2.33333" stroke-linejoin="round"/>
<circle cx="958" cy="120.667" r="2.33333" stroke="white" stroke-width="2.33333"/>
<path d="M953.334 128.833V127.667C953.334 125.089 955.423 123 958.001 123V123C960.578 123 962.667 125.089 962.667 127.667V128.833" stroke="white" stroke-width="2.33333"/>
</svg>
