<svg width="183" height="655" viewBox="0 0 183 655" fill="none" xmlns="http://www.w3.org/2000/svg">
<rect x="0.777344" width="181.557" height="181.557" rx="90.7784" fill="#E5489B"/>
<path d="M53.877 120.02V82.6389C53.877 78.0511 57.5961 74.332 62.1838 74.332H120.332C124.919 74.332 128.638 78.0511 128.638 82.6389V120.02C128.638 124.607 124.919 128.326 120.332 128.326H62.1838C57.5961 128.326 53.877 124.607 53.877 120.02Z" stroke="white" stroke-width="8.30684"/>
<path d="M74.6445 70.1791V70.1791C74.6445 61.0036 82.0827 53.5654 91.2582 53.5654V53.5654C100.434 53.5654 107.872 61.0036 107.872 70.1791V70.1791" stroke="white" stroke-width="8.30684"/>
<path d="M112.024 128.379L70.4894 128.331C68.1955 128.328 66.3381 126.467 66.3407 124.173L66.3645 103.406C66.3698 98.8179 70.0931 95.1031 74.6809 95.1084L107.908 95.1465C112.496 95.1518 116.211 98.8751 116.206 103.463L116.182 124.23C116.179 126.524 114.317 128.381 112.024 128.379Z" stroke="white" stroke-width="8.30684"/>
<path d="M70.5072 111.718V111.718C77.3888 111.726 82.9738 106.154 82.9817 99.2721V99.2721" stroke="white" stroke-width="8.30684"/>
<path d="M112.044 111.765V111.765C105.163 111.757 99.5905 106.172 99.5983 99.2904V99.2904" stroke="white" stroke-width="8.30684"/>
<path d="M103.717 128.371C103.725 121.49 98.153 115.905 91.2714 115.897C84.3898 115.889 78.8048 121.461 78.7969 128.343L103.717 128.371Z" stroke="white" stroke-width="8.30684"/>
<rect x="27.9336" y="162.299" width="127.245" height="127.245" rx="63.6223" fill="#F7C8E1"/>
<path d="M74.0781 221.553C74.0781 219.167 76.0126 217.232 78.3989 217.232H104.324C106.71 217.232 108.644 219.167 108.644 221.553V240.997C108.644 243.383 106.71 245.318 104.324 245.318H78.3989C76.0126 245.318 74.0781 243.383 74.0781 240.997V221.553Z" stroke="#060F21" stroke-width="4.32078"/>
<path d="M110.805 219.394L101.083 208.667L81.6397 208.592L71.918 219.394" stroke="#060F21" stroke-width="4.32078" stroke-linecap="round" stroke-linejoin="round"/>
<circle cx="91.362" cy="232.356" r="4.32078" stroke="#060F21" stroke-width="4.32078"/>
<path d="M82.7207 247.479V245.318C82.7207 240.546 86.5897 236.677 91.3623 236.677V236.677C96.1349 236.677 100.004 240.546 100.004 245.318V247.479" stroke="#060F21" stroke-width="4.32078"/>
<path d="M108.644 219.394C108.644 221.78 106.709 223.714 104.323 223.714C101.936 223.714 100.002 221.78 100.002 219.394" stroke="#060F21" stroke-width="4.32078"/>
<path d="M100.003 219.394C100.003 221.78 98.0684 223.714 95.6821 223.714C93.2958 223.714 91.3613 221.78 91.3613 219.394" stroke="#060F21" stroke-width="4.32078"/>
<path d="M91.3623 219.394C91.3623 221.78 89.4278 223.714 87.0415 223.714C84.6552 223.714 82.7207 221.78 82.7207 219.394" stroke="#060F21" stroke-width="4.32078"/>
<path d="M82.7197 219.394C82.7197 221.78 80.7852 223.714 78.3989 223.714C76.0126 223.714 74.0781 221.78 74.0781 219.394" stroke="#060F21" stroke-width="4.32078"/>
<rect x="40.6836" y="270.285" width="101.743" height="101.743" rx="50.8715" fill="#FBA500"/>
<path d="M77.1426 329.135V313.086C77.1426 309.541 80.0167 306.667 83.562 306.667H99.6106C103.156 306.667 106.03 309.541 106.03 313.086V329.135C106.03 332.68 103.156 335.555 99.6106 335.555H83.562C80.0167 335.555 77.1426 332.68 77.1426 329.135Z" stroke="white" stroke-width="3.20972"/>
<line x1="77.1426" y1="314.691" x2="106.03" y2="314.691" stroke="white" stroke-width="3.20972"/>
<path d="M93.1914 319.506H94.7963" stroke="white" stroke-width="3.20972" stroke-linecap="round" stroke-linejoin="round"/>
<path d="M93.1914 324.32H94.7963" stroke="white" stroke-width="3.20972" stroke-linecap="round" stroke-linejoin="round"/>
<path d="M99.6113 319.506H101.216" stroke="white" stroke-width="3.20972" stroke-linecap="round" stroke-linejoin="round"/>
<path d="M99.6113 324.32H101.216" stroke="white" stroke-width="3.20972" stroke-linecap="round" stroke-linejoin="round"/>
<path d="M99.6113 329.135H101.216" stroke="white" stroke-width="3.20972" stroke-linecap="round" stroke-linejoin="round"/>
<circle cx="85.1681" cy="322.716" r="3.20972" stroke="white" stroke-width="3.20972"/>
<path d="M78.748 333.95V333.95C78.748 330.404 81.6221 327.53 85.1675 327.53V327.53C88.7129 327.53 91.5869 330.404 91.5869 333.95V333.95" stroke="white" stroke-width="3.20972"/>
<rect x="45.4199" y="352.77" width="92.2708" height="92.2708" rx="46.1354" fill="#FFE201"/>
<rect x="79.8574" y="390.858" width="5.18515" height="9.61691" rx="1.29618" transform="rotate(-45 79.8574 390.858)" stroke="#1A534A" stroke-width="2.59236"/>
<path d="M82.4499 389.786L79.8574 387.193M100.597 407.933L103.19 410.526M90.2273 397.563L87.6348 394.971M92.8198 400.156L95.4122 402.748" stroke="#1A534A" stroke-width="2.59236" stroke-linecap="round" stroke-linejoin="round"/>
<rect x="92.8203" y="403.819" width="5.18515" height="9.33328" rx="1.29618" transform="rotate(-45 92.8203 403.819)" stroke="#1A534A" stroke-width="2.59236"/>
<path d="M98.0039 397.562H99.9485" stroke="#1A534A" stroke-width="2.59236" stroke-linecap="round" stroke-linejoin="round"/>
<path d="M82.4512 400.154H84.3958" stroke="#1A534A" stroke-width="2.59236" stroke-linecap="round" stroke-linejoin="round"/>
<path d="M92.8203 393.021L92.9473 391.081" stroke="#1A534A" stroke-width="2.59236" stroke-linecap="round" stroke-linejoin="round"/>
<path d="M90.2285 407.28L90.3555 405.34" stroke="#1A534A" stroke-width="2.59236" stroke-linecap="round" stroke-linejoin="round"/>
<path d="M86.3398 404.177L87.657 402.746" stroke="#1A534A" stroke-width="2.59236" stroke-linecap="round" stroke-linejoin="round"/>
<path d="M95.4355 395.01L96.7113 393.713" stroke="#1A534A" stroke-width="2.59236" stroke-linecap="round" stroke-linejoin="round"/>
<rect x="45.4199" y="425.782" width="92.2708" height="92.2708" rx="46.1354" fill="#6624CE"/>
<path d="M99.185 467.358C98.2589 465.754 96.8303 464.495 95.104 463.761C93.3776 463.028 91.4421 462.857 89.5748 463.275C87.7075 463.692 86.0043 464.675 84.7094 466.084C83.4145 467.492 82.5942 469.253 82.3662 471.115" stroke="#A4FC5A" stroke-width="2.19258" stroke-linecap="round"/>
<path d="M83.9947 476.128C84.9208 477.732 86.3494 478.991 88.0757 479.724C89.8021 480.458 91.7376 480.628 93.6049 480.211C95.4722 479.794 97.1753 478.81 98.4703 477.402C99.7652 475.993 100.585 474.232 100.813 472.37" stroke="#A4FC5A" stroke-width="2.19258" stroke-linecap="round"/>
<path d="M99.2504 462.924V467.309H94.8652" stroke="#A4FC5A" stroke-width="2.19258" stroke-linecap="round" stroke-linejoin="round"/>
<path d="M83.9019 480.465V476.08H88.2871" stroke="#A4FC5A" stroke-width="2.19258" stroke-linecap="round" stroke-linejoin="round"/>
<path d="M89.3838 471.565C89.3838 470.466 90.3237 469.502 91.5764 469.502C92.829 469.502 93.7689 470.466 93.7689 471.565C93.7689 472.113 93.5425 472.617 93.1582 472.994C93.1581 472.994 93.1581 472.994 93.158 472.994L91.5764 474.544L89.9947 472.994C89.9946 472.994 89.9946 472.994 89.9946 472.994C89.6102 472.617 89.3838 472.113 89.3838 471.565Z" stroke="#A4FC5A" stroke-width="2.19258"/>
<path d="M89.3838 471.565C89.3838 470.466 90.3237 469.502 91.5764 469.502C92.829 469.502 93.7689 470.466 93.7689 471.565C93.7689 472.113 93.5425 472.617 93.1582 472.994C93.1581 472.994 93.1581 472.994 93.158 472.994L91.5764 474.544L89.9947 472.994C89.9946 472.994 89.9946 472.994 89.9946 472.994C89.6102 472.617 89.3838 472.113 89.3838 471.565Z" stroke="#A4FC5A" stroke-width="2.19258"/>
<rect x="49.4902" y="498.795" width="84.1292" height="84.1292" rx="42.0646" fill="#A4FC5A"/>
<path d="M81.1289 550.086V538.677C81.1289 537.977 81.6965 537.409 82.3966 537.409H100.145C100.845 537.409 101.412 537.977 101.412 538.677V550.086C101.412 551.487 100.277 552.622 98.877 552.622H83.6644C82.2641 552.622 81.1289 551.487 81.1289 550.086Z" stroke="#6624CE" stroke-width="2.53545"/>
<circle cx="91.27" cy="545.015" r="2.53545" stroke="#6624CE" stroke-width="2.53545"/>
<path d="M86.1992 553.889V552.622C86.1992 549.821 88.4695 547.551 91.2701 547.551V547.551C94.0707 547.551 96.341 549.821 96.341 552.622V553.889" stroke="#6624CE" stroke-width="2.53545"/>
<path d="M79.8594 537.409L91.2689 531.07L102.678 537.409" stroke="#6624CE" stroke-width="2.53545" stroke-linecap="round"/>
<rect x="59.8242" y="563.665" width="63.4642" height="63.4642" rx="31.7321" fill="#F7C8E1"/>
<path d="M84.0195 601.401V589.303C84.0195 588.348 84.7933 587.574 85.7478 587.574H97.846C98.8006 587.574 99.5743 588.348 99.5743 589.303V601.401C99.5743 602.355 98.8006 603.129 97.846 603.129H85.7478C84.7933 603.129 84.0195 602.355 84.0195 601.401Z" stroke="black" stroke-width="1.72831"/>
<circle cx="88.3405" cy="596.216" r="1.72831" stroke="black" stroke-width="1.72831"/>
<circle cx="95.2526" cy="596.216" r="1.72831" stroke="black" stroke-width="1.72831"/>
<circle cx="91.7975" cy="591.894" r="1.72831" stroke="black" stroke-width="1.72831"/>
<path d="M84.8828 603.129V602.265C84.8828 600.356 86.4304 598.809 88.3394 598.809V598.809C90.2485 598.809 91.7961 600.356 91.7961 602.265V603.129" stroke="black" stroke-width="1.72831"/>
<path d="M91.7969 603.129V602.265C91.7969 600.356 93.3445 598.809 95.2535 598.809V598.809C97.1625 598.809 98.7101 600.356 98.7101 602.265V603.129" stroke="black" stroke-width="1.72831"/>
<rect x="68.4082" y="607.871" width="46.2944" height="46.2944" rx="23.1472" fill="#1A534A"/>
<path d="M83.8613 632.7V626.651C83.8613 625.697 84.6351 624.923 85.5896 624.923H97.6878C98.6424 624.923 99.4161 625.697 99.4161 626.651V632.7C99.4161 633.655 98.6424 634.429 97.6878 634.429H85.5896C84.6351 634.429 83.8613 633.655 83.8613 632.7Z" stroke="white" stroke-width="1.72831"/>
<path d="M86.4531 634.429V633.565H85.589V634.429H86.4531ZM86.4531 637.021H85.589C85.589 637.498 85.9759 637.885 86.4531 637.885V637.021ZM89.9098 637.021V637.885C90.387 637.885 90.7739 637.498 90.7739 637.021H89.9098ZM89.9098 634.429H90.7739V633.565H89.9098V634.429ZM85.589 634.429V637.021H87.3173V634.429H85.589ZM86.4531 637.885H89.9098V636.157H86.4531V637.885ZM90.7739 637.021V634.429H89.0456V637.021H90.7739ZM86.4531 635.293H89.9098V633.565H86.4531V635.293Z" fill="white"/>
<path d="M93.3672 637.021V634.429H96.8238V637.021H93.3672Z" stroke="white" stroke-width="1.72831" stroke-linejoin="round"/>
<circle cx="91.6393" cy="629.244" r="1.72831" stroke="white" stroke-width="1.72831"/>
<path d="M88.1816 635.292V634.428C88.1816 632.519 89.7292 630.972 91.6383 630.972V630.972C93.5473 630.972 95.0949 632.519 95.0949 634.428V635.292" stroke="white" stroke-width="1.72831"/>
</svg>
