<svg xmlns="http://www.w3.org/2000/svg" width="42" height="42" viewBox="0 0 42 42" fill="none">
  <path d="M42 20.9875C41.9779 17.6526 39.3625 14.9396 36.0687 14.7628C37.1337 13.5779 37.6721 12.0836 37.6721 10.5849C37.6559 8.99632 37.0614 7.3753 35.8415 6.15658C33.4652 3.81346 29.6963 3.74273 27.2418 5.94585C27.1563 4.35577 26.4792 2.91895 25.4186 1.85792C24.2828 0.745304 22.7148 0.0202637 20.9889 0.0202637C17.6508 0.0423686 14.9352 2.65517 14.7582 5.94585C13.5722 4.88187 12.0765 4.34398 10.5763 4.34398C8.98621 4.36019 7.36361 4.95407 6.14224 6.17279C3.79686 8.54686 3.72607 12.3121 5.93131 14.7642C2.63746 14.9411 0.0221262 17.6526 0 20.989C0 22.7131 0.727229 24.2796 1.83944 25.4144C2.90002 26.4739 4.3397 27.1503 5.93131 27.2358C3.72754 29.688 3.79686 33.4532 6.14224 35.8272C7.36361 37.0474 8.98473 37.6413 10.5749 37.656C12.075 37.656 13.5708 37.1167 14.7567 36.0542C14.9337 39.3449 17.6479 41.9577 20.9875 41.9798C22.7133 41.9798 24.2813 41.2532 25.4171 40.1421C26.4777 39.0825 27.1548 37.6443 27.2403 36.0542C29.6949 38.2573 33.4637 38.1866 35.8401 35.8434C37.0614 34.6233 37.6559 33.0037 37.6706 31.4151C37.6706 29.9164 37.1307 28.4221 36.0672 27.2373C37.6588 27.1518 39.0985 26.4754 40.1591 25.4158C41.2728 24.2811 41.9985 22.7146 41.9985 20.9904L42 20.9875Z" fill="#A4FC5A"/>
</svg>
