<svg xmlns="http://www.w3.org/2000/svg" width="41" height="42" viewBox="0 0 41 42" fill="none">
  <path d="M40.9383 19.4317C40.846 18.1697 40.6546 17.0131 40.3529 15.8994C38.9709 10.7906 36.024 6.75257 31.5979 3.90241C28.806 2.09017 25.648 1.03413 22.2047 0.760644C20.8179 0.658499 19.4442 0.694745 17.993 0.874321C16.5105 1.07367 15.0609 1.42623 13.6823 1.92213C7.52462 4.15777 2.79506 9.24852 1.03054 15.5419C0.66115 16.8566 0.42533 18.2537 0.328034 19.7068C0.285158 20.4251 0.285156 21.1319 0.285156 21.8172V38.2065C0.285156 39.91 1.67203 41.2955 3.39202 41.2955H20.6464L22.147 41.2906V41.2379C22.2987 41.2263 22.4472 41.2148 22.5956 41.2C23.7384 41.0863 24.7592 40.91 25.7206 40.6596C30.1517 39.4899 33.8258 37.0928 36.6441 33.5325C39.0682 30.4682 40.4996 26.9129 40.9004 22.9639C41.0191 21.8057 41.0323 20.6179 40.9366 19.4317H40.9383Z" fill="#FFE201"/>
</svg>
